<?xml version="1.0" encoding="UTF-8" standalone="no"?>
<svg
   xmlns:dc="http://purl.org/dc/elements/1.1/"
   xmlns:cc="http://creativecommons.org/ns#"
   xmlns:rdf="http://www.w3.org/1999/02/22-rdf-syntax-ns#"
   xmlns:svg="http://www.w3.org/2000/svg"
   xmlns="http://www.w3.org/2000/svg"
   xmlns:sodipodi="http://sodipodi.sourceforge.net/DTD/sodipodi-0.dtd"
   xmlns:inkscape="http://www.inkscape.org/namespaces/inkscape"
   width="796.22131mm"
   height="310.96103mm"
   viewBox="0 0 796.22131 310.96103"
   version="1.1"
   id="svg8"
   sodipodi:docname="graphic-1-1.svg"
   inkscape:version="1.0.1 (3bc2e813f5, 2020-09-07)">
  <defs
     id="defs2" />
  <sodipodi:namedview
     id="base"
     pagecolor="#ffffff"
     bordercolor="#666666"
     borderopacity="1.0"
     inkscape:pageopacity="0.0"
     inkscape:pageshadow="2"
     inkscape:zoom="0.35"
     inkscape:cx="1235.9281"
     inkscape:cy="377.13483"
     inkscape:document-units="mm"
     inkscape:current-layer="layer1"
     inkscape:document-rotation="0"
     showgrid="false"
     inkscape:window-width="1920"
     inkscape:window-height="1017"
     inkscape:window-x="-8"
     inkscape:window-y="487"
     inkscape:window-maximized="1" />
  <metadata
     id="metadata5">
    <rdf:RDF>
      <cc:Work
         rdf:about="">
        <dc:format>image/svg+xml</dc:format>
        <dc:type
           rdf:resource="http://purl.org/dc/dcmitype/StillImage" />
        <dc:title></dc:title>
      </cc:Work>
    </rdf:RDF>
  </metadata>
  <g
     inkscape:label="Layer 1"
     inkscape:groupmode="layer"
     id="layer1"
     transform="translate(300.59279,51.079874)">
    <g
       transform="matrix(0.03527778,0,0,-0.03527778,-300.59099,270.65348)"
       fill="#000000"
       stroke="none"
       id="g901">
      <path
         d="m 3271,7859 c 239,-215 390.4286,-288.7143 544.4286,-517.7143 61,-92 251.8571,-331.8571 303.8571,-379.8571 42,-39 118.1712,-181.3226 168.1712,-259.3226 25,-38 57.7417,-78.7418 90.7417,-106.7418 C 4480.1986,6509.3642 4475,6465 4523,6373 c 38,-73 57,-98 106,-138 34,-26 60,-50 58,-51 -10,-11 -865,-101 -1312,-138 -99,-9 -250,-22 -335,-30 -219,-21 -539,-37 -715,-35 l -149,1 -11,-32 c -6,-17 -16,-35 -23,-39 -7,-4 -10,-15 -7,-24 11,-28 -13,-57 -48,-57 -18,0 -39,-5 -47,-10 -10,-6 -11,-10 -2,-10 6,0 12,-7 12,-15 0,-11 11,-15 43,-15 23,0 73,-3 110,-7 l 69,-6 -7,-36 c -4,-20 -12,-39 -18,-43 -7,-4 -10,-8 -7,-9 113,-26 193,-33 332,-31 l 157,2 27,-35 c 15,-21 23,-39 18,-44 -5,-4 -33,-13 -62,-19 -56,-12 -205,-78 -286,-127 -53,-31 -39,-29 -424,-54 -163,-10 -182,-19 -182,-80 0,-77 54,-112 135,-87 108,32 284,69 375,77 95,8 573,-6 654,-19 37,-7 41,-11 44,-39 2,-17 -9,-63 -25,-102 l -27,-71 h -86 c -47,0 -110,6 -140,14 -47,12 -56,12 -63,1 -6,-11 -14,-12 -32,-5 -27,10 -29,8 -39,-32 -8,-36 -23,-35 -84,6 -29,19 -68,35 -93,39 -39,5 -42,4 -25,-8 10,-8 24,-16 30,-18 8,-3 8,-12 1,-33 -9,-26 -16,-30 -68,-35 -69,-8 -87,-21 -87,-65 0,-40 -30,-76 -51,-63 -8,5 -14,19 -14,31 0,33 -29,34 -50,1 -17,-26 -17,-27 0,-38 46,-27 100,-72 100,-85 0,-7 -15,-18 -33,-22 -18,-5 -42,-18 -53,-29 -11,-11 -27,-18 -34,-15 -9,3 -15,-7 -19,-29 -4,-18 -16,-45 -28,-60 -26,-33 -18,-41 53,-60 37,-10 77,-13 127,-9 67,6 72,5 72,-13 0,-11 -19,-42 -42,-68 -37,-42 -45,-46 -74,-42 -27,5 -41,-2 -91,-40 -32,-25 -77,-54 -100,-65 -24,-10 -49,-31 -57,-46 -24,-46 -49,-61 -129,-76 -42,-8 -86,-20 -97,-26 -51,-27 -135,-41 -210,-35 -129,11 -241,-17 -325,-81 -16,-12 -61,-30 -100,-40 -62,-16 -77,-24 -126,-73 C 944,3865 799,3777 680,3730 633,3711 566,3679 531,3658 464,3619 404,3596 208,3535 83,3496 15,3459 6,3426 c -20,-73 11,-139 72,-155 62,-17 258,16 335,56 16,8 72,25 123,38 100,26 133,40 202,87 52,36 213,104 302,129 155,43 231,68 256,83 49,33 108,47 189,47 98,-1 227,-24 292,-53 42,-19 68,-22 223,-24 170,-2 585,25 716,46 89,15 234,13 238,-2 2,-7 10,-47 17,-89 13,-66 13,-80 1,-98 -22,-32 -10,-48 32,-43 19,2 41,10 47,18 15,18 29,18 29,-1 0,-9 7,-18 15,-21 28,-11 15,-34 -32,-56 -59,-29 -69,-51 -22,-46 29,2 34,0 31,-17 -2,-11 -9,-26 -14,-32 -8,-9 -3,-23 16,-48 39,-50 56,-57 133,-49 63,7 67,6 54,-9 -12,-15 -10,-17 17,-17 17,0 33,-4 36,-9 3,-4 27,-11 53,-14 36,-4 64,1 112,19 35,13 66,23 68,21 2,-2 -21,-16 -49,-32 -48,-25 -148,-117 -148,-136 0,-19 24,-19 45,1 18,17 30,20 56,15 19,-3 70,1 114,9 314,57 386,67 550,76 328,18 489,31 595,46 58,9 139,19 180,23 42,4 81,10 87,14 7,4 69,8 139,8 91,0 149,6 202,20 41,10 84,19 96,19 20,0 20,0 1,-14 -11,-7 -70,-30 -132,-50 -90,-30 -146,-41 -287,-56 -186,-21 -247,-32 -303,-55 -19,-8 -86,-26 -148,-40 -62,-14 -137,-34 -167,-45 l -53,-20 65,6 c 36,3 97,12 135,20 39,9 118,21 177,28 59,7 114,19 122,25 8,7 24,10 35,6 25,-7 122,9 215,37 60,18 74,19 120,9 39,-10 70,-10 136,-1 151,21 180,23 180,13 0,-5 -28,-18 -62,-28 -69,-20 -107,-44 -73,-46 11,0 109,-4 218,-8 165,-5 201,-9 210,-22 10,-13 47,-17 207,-24 107,-4 280,-7 384,-6 193,2 276,-4 276,-20 0,-5 -16,-9 -36,-9 -21,0 -33,-4 -29,-10 3,-6 26,-10 51,-10 41,0 44,-2 44,-27 0,-16 -14,-99 -30,-187 -18,-97 -30,-190 -30,-240 1,-116 32,-283 63,-337 30,-52 61,-174 82,-325 9,-60 27,-150 41,-200 l 26,-92 -37,-98 c -32,-84 -36,-106 -32,-163 2,-36 12,-97 22,-135 18,-68 18,-70 -4,-215 -12,-80 -34,-201 -48,-269 55.8773,-101.66385 9.369,-328.66594 119.7857,-336.64288 47,0 31.9286,143.14285 145.5714,185.14285 64,62 130.4286,3.28573 149.4286,265.28573 20,279 22.2143,230.2143 97.2143,370.2143 35,66 36,72 30,136 -9,93 11,156 82,253 41,57 78,129 136,264 71,166 81,197 93,291 7,58 28,152 46,210 l 32,105 86,85 c 119,118 161,145 219,143 95,-3 179,-62 200,-141 23,-86 33,-264 20,-374 -11,-99 -11,-117 9,-230 12,-68 29,-168 38,-223 9,-55 23,-113 32,-130 42,-83 89,-140 180,-218 57,-49 116,-110 138,-144 56,-85 159,-333 179,-433 30,-153 96,-250 170,-250 101,0 101,118 0,319 -21,41 -63,145 -95,231 -36,99 -77,189 -113,247 -34,56 -60,112 -66,145 -14,63 -48,141 -92,204 -24,35 -37,73 -55,162 -27,130 -26,216 3,371 11,59 14,112 10,177 -5,76 -3,106 14,166 15,52 22,117 26,228 4,117 9,159 20,172 9,9 45,27 82,40 61,21 83,23 287,23 163,0 225,-3 236,-13 9,-7 29,-40 46,-75 38,-76 172,-231 270,-310 66,-54 77,-68 119,-156 36,-75 59,-109 108,-156 73,-71 75,-75 135,-234 36,-94 59,-138 96,-184 163,-201 298,-423 348,-573 9,-28 33,-73 54,-101 20,-29 49,-70 65,-93 15,-22 48,-53 73,-68 31,-18 70,-61 125,-134 91,-122 114,-141 207,-174 100,-35 148,-32 207,12 l 48,37 -6,76 c -10,142 -47,203 -172,286 -129,87 -204,148 -238,197 -18,26 -54,75 -81,110 -27,35 -68,104 -91,153 -23,50 -73,131 -110,180 -81,106 -117,166 -135,221 -20,61 -58,133 -109,204 -25,36 -83,126 -129,200 -140,226 -144,236 -101,284 18,21 55,44 97,61 115,46 144,93 122,200 -10,48 -21,68 -63,112 l -50,53 15,48 c 13,39 21,49 49,58 19,6 39,22 47,37 10,22 21,27 70,32 31,3 82,12 112,20 93,23 178,34 353,45 146,10 176,9 223,-5 29,-8 102,-22 161,-30 124,-18 289,-48 381,-72 45,-11 79,-28 115,-58 60,-48 92,-66 174,-96 32,-12 81,-38 108,-59 28,-20 73,-49 100,-65 28,-15 61,-38 75,-50 14,-12 57,-34 95,-49 39,-15 91,-40 116,-56 50,-30 145,-74 249,-113 36,-14 103,-43 149,-66 93,-45 154,-53 215,-27 45,19 53,54 26,111 -27,56 -78,89 -170,110 -146,32 -361,116 -486,189 -43,26 -109,55 -145,66 -70,21 -161,70 -215,114 -21,17 -34,39 -39,63 -9,50 13,67 105,81 44,7 76,17 83,27 7,8 35,20 62,25 28,5 73,15 100,23 71,21 246,35 575,47 157,6 359,15 450,20 341,19 804,39 1065,45 163,4 282,12 300,19 61,23 507,12 855,-22 173,-17 353,-33 400,-37 47,-3 183,-18 303,-31 120,-14 231,-23 245,-19 25,7 25,8 7,15 -55,21 -99,30 -190,40 -55,6 -121,17 -146,24 -25,8 -81,17 -125,21 -43,3 -122,12 -174,20 -52,7 -129,17 -170,20 -41,4 -109,15 -150,26 -42,10 -118,23 -170,29 -81,9 -124,19 -94,21 200,13 417,15 576,5 107,-7 141,-6 153,4 16,14 272,2 562,-26 84,-8 172,-14 195,-13 65,2 355,-20 423,-31 54,-10 122,-17 314,-37 l 65,-6 37,43 37,43 269,-17 c 147,-9 340,-23 428,-31 171,-15 476,-30 826,-41 214,-6 217,-6 232,16 l 15,22 101,-21 c 106,-22 230,-38 221,-28 -3,3 -43,15 -90,27 -108,26 -142,40 -137,54 7,22 130,29 322,17 105,-6 232,-11 283,-11 90,0 202,-13 389,-46 103,-18 231,-12 186,9 -24,11 -29,22 -14,31 4,3 125,-3 267,-14 143,-11 309,-20 369,-20 199,-1 629,-46 940,-100 248,-43 411,-72 428,-77 9,-2 17,0 17,6 0,14 -363,126 -505,156 -33,7 -94,22 -135,34 -41,12 -196,51 -345,87 -148,37 -276,70 -283,74 -20,10 80,39 153,44 33,2 82,12 109,23 52,19 72,43 37,43 -12,0 -21,6 -21,14 0,8 -9,17 -19,21 -11,3 -23,15 -26,26 -5,16 -10,18 -21,8 -21,-17 -60,-3 -101,39 -52,52 -112,85 -242,132 -61,21 -134,49 -163,60 -134,54 -139,59 -90,87 l 29,16 -31,28 c -29,25 -30,28 -12,35 12,5 31,1 50,-10 40,-23 236,-89 243,-82 3,3 -1,16 -10,30 -12,17 -32,28 -69,35 -29,7 -71,22 -93,35 -22,12 -67,33 -100,46 -33,13 -65,29 -71,36 -6,8 -31,14 -57,14 -36,0 -49,5 -61,22 -24,35 -5,43 61,29 32,-7 71,-17 87,-22 16,-5 52,-9 79,-9 32,0 57,-6 68,-16 22,-19 220,-39 248,-25 27,15 101,115 101,137 0,27 -8,37 -70,83 -50,38 -148,82 -249,112 -23,7 -41,16 -41,20 0,23 79,11 194,-31 33,-12 90,-23 127,-25 l 68,-4 11,35 c 6,18 19,38 28,44 33,19 -30,57 -167,100 -70,22 -136,47 -147,55 -10,8 -32,15 -49,15 -45,2 -244,45 -254,56 -5,5 -16,32 -25,61 l -17,52 -56,3 -56,3 -12,48 c -7,26 -23,59 -36,73 l -24,26 45,-7 c 25,-4 65,-18 89,-32 24,-13 44,-23 46,-21 1,2 15,23 30,47 27,43 27,43 72,37 70,-9 182,12 217,41 26,21 36,24 75,18 25,-4 71,-15 101,-26 58,-20 108,-26 79,-9 -8,5 -116,39 -240,76 -123,36 -226,68 -228,70 -2,2 1,22 8,44 14,47 3,75 -32,84 -13,3 -34,15 -47,26 -29,25 -31,26 -205,40 -77,6 -176,17 -220,23 -44,7 -139,12 -211,12 h -131 l -32,110 c -36,128 -37,136 -11,233 10,40 17,79 14,87 -4,10 -20,15 -45,15 -28,0 -37,-4 -33,-14 9,-23 -39,-111 -62,-114 -19,-3 -22,3 -27,55 -5,57 3,142 18,176 6,14 2,17 -21,17 -16,0 -58,-6 -94,-15 -154,-34 -229,-47 -249,-42 -12,3 -24,1 -27,-4 -7,-11 -64,-8 -64,3 0,12 5,13 165,38 76,12 146,26 155,31 12,9 11,9 -4,4 -49,-15 -298,-35 -447,-35 -154,0 -168,2 -215,24 -44,22 -66,24 -234,30 -175,5 -571,29 -690,41 -40,4 -52,3 -44,-5 15,-15 169,-29 334,-31 143,-1 201,-10 166,-24 -63,-27 -1244,70 -1338,109 -51,22 -120,20 -241,-5 -132,-27 -376,-25 -420,4 -36,23 -34,35 8,43 54,10 33,20 -54,27 -45,4 -98,15 -123,26 -24,11 -57,22 -74,26 -19,4 -35,15 -42,29 -14,31 -27,33 -452,52 -190,8 -430,24 -535,35 -104,11 -230,23 -280,28 -169,17 -781,23 -1960,20 -649,-2 -1238,-3 -1310,-4 -71,0 -242,1 -380,2 -137,2 -293,-2 -345,-7 -539,-58 -1165,-89 -1095,-56 30,14 29,15 -35,18 -66,3 -82,17 -33,30 14,4 83,14 152,22 275,34 310,40 304,49 -7,11 -79,7 -320,-19 -157,-16 -333,-13 -333,5 0,16 389,201 505,241 91,32 211,83 302,129 35,17 124,49 199,70 74,21 144,47 154,56 43,39 34,129 -16,155 -32,17 -74,4 -179,-55 -107,-61 -231,-121 -530,-256 -141,-64 -306,-147 -378,-190 -70,-43 -153,-87 -185,-99 -31,-11 -78,-32 -103,-45 -26,-14 -54,-25 -62,-25 -9,0 -51,-18 -94,-40 -66,-35 -79,-38 -88,-26 -9,12 -24,13 -85,5 -41,-5 -78,-5 -82,-1 -4,4 32,29 80,55 48,26 118,75 157,109 73,64 149,104 445,234 80,35 151,72 158,81 22,30 14,71 -21,110 -27,29 -38,35 -58,30 -13,-4 -91,-56 -173,-116 -161,-117 -428,-282 -514,-317 -29,-11 -55,-24 -59,-28 -3,-3 -13,-6 -21,-6 -8,0 -89,-32 -181,-71 l -166,-71 -35,18 c -19,11 -47,37 -63,60 -71,102 -31,205 118,304 109,73 316,270 392,373 19,26 54,59 78,72 23,14 71,59 105,100 34,41 108,115 164,166 55,50 182,173 281,273 229,230 369,364 420,401 71,52 300,237 313,253 23,29 14,68 -23,101 -20,17 -43,31 -53,31 -70,-1 -269,-172 -487,-419 -49,-56 -213,-226 -362,-377 -150,-150 -273,-278 -273,-283 0,-6 -21,-25 -48,-42 -26,-18 -112,-97 -193,-175 -80,-79 -158,-148 -175,-154 -16,-7 -56,-16 -89,-21 -98,-17 -163,-60 -229,-154 -24,-36 -119,-95 -162,-102 -18,-3 -47,0 -64,7 -26,11 -33,23 -55,95 -48,158 -46,167 61,261 50,44 74,74 95,119 15,33 39,71 54,85 42,38 156,196 200,275 41,75 74,121 173,243 35,42 77,104 94,136 41,81 132,221 182,281 23,28 53,66 66,85 68,101 139,185 219,258 119,109 135,153 77,215 -21,23 -33,27 -80,27 -60,0 -72,-7 -113,-74 -14,-23 -54,-84 -88,-136 -82,-127 -120,-190 -170,-281 -46,-84 -177,-279 -235,-349 -21,-25 -54,-72 -74,-105 -128,-211 -166,-264 -289,-397 -115,-124 -300,-312 -533,-539 -99,-98 -101,-99 -135,-89 -48,14 -101,86 -179,245 -24,50 -56,107 -71,127 -19,27 -30,59 -38,115 -6,43 -15,111 -21,151 -6,40 -19,96 -30,125 -30,78 -36,164 -17,270 25,139 37,285 27,312 -13,33 -60,55 -118,55 -82,0 -112,-35 -197,-230 -73,-166 -77,-182 -60,-229 7,-22 50,-115 94,-208 44,-92 87,-199 97,-238 9,-38 30,-95 45,-126 17,-35 34,-93 43,-152 9,-52 36,-165 60,-249 60,-205 69,-263 51,-330 -15,-59 -65,-113 -112,-123 -15,-3 -50,-12 -78,-21 -56,-17 -576,-45 -885,-47 -163,-2 -190,0 -230,17 -64,27 -219,33 -330,11 -84,-16 -86,-16 -196,9 -100,22 -306.5,39.7857 -442.5,108.7857 -20,10 -132.6257,65.7575 -210.566,114.0754 -98.1523,60.0596 -96.0133,58.1789 -184.7551,138.9073 -70,40 -156.4238,141.6688 -199.4238,173.6688 -92,68 -105.8477,62.1656 -202.6955,142.1523 -69,26 -80.0596,74.4105 -166.0596,149.4105 -57,50 -150,122 -208,161 -58,40 -134,97 -170,128 -104,89 -159,128 -193,136 -41,8 -159,128 -246,250 -220.4318,191.6018 -461.5259,-11.1419 -130,-277 z M 19881,5937 c -1,-12 -15,-9 -19,4 -3,6 1,10 8,8 6,-3 11,-8 11,-12 z m 40,-103 c 10,-13 10,-17 -1,-24 -17,-10 -40,5 -40,26 0,19 25,18 41,-2 z M 5490,5787 c 29,-15 38,-42 15,-51 -39,-14 -309,-46 -515,-61 -331,-22 -531,-43 -547,-56 -10,-9 -26,-9 -68,1 -49,12 -59,11 -102,-6 -39,-15 -74,-19 -183,-18 -155,0 -297,8 -306,17 -3,3 11,10 32,16 110,29 185,41 344,56 170,15 254,28 295,45 11,4 112,15 225,24 232,19 382,35 389,41 2,3 92,5 200,5 138,0 203,-4 221,-13 z M 3080,5486 c 0,-8 -5,-18 -11,-22 -14,-8 -33,11 -25,25 10,16 36,13 36,-3 z m -480,-27 c 0,-19 -67,-79 -89,-79 -25,0 -39,26 -22,43 11,11 87,45 104,46 4,1 7,-4 7,-10 z m 435,-20 c 9,-27 1,-32 -101,-59 -69,-19 -101,-22 -182,-18 -54,3 -106,9 -117,15 -17,10 -16,12 13,27 17,9 50,16 74,16 51,0 227,26 235,34 4,3 21,6 39,6 25,0 34,-5 39,-21 z m 45,1 c 0,-5 -5,-10 -11,-10 -5,0 -7,5 -4,10 3,6 8,10 11,10 2,0 4,-4 4,-10 z M 20009,4180 c 19,-5 43,-19 53,-30 18,-20 18,-20 -1,-20 -41,0 -220,43 -215,51 7,12 121,11 163,-1 z m -2668,-570 c 5,0 9,-4 9,-10 0,-5 -11,-10 -25,-10 -16,0 -25,6 -25,16 0,11 5,14 16,10 9,-3 20,-6 25,-6 z M 6207,3087 c 125,-12 154,-19 140,-33 -3,-3 -77,-10 -164,-15 -116,-7 -169,-7 -201,2 -33,9 -55,9 -102,-1 -53,-11 -59,-15 -48,-29 7,-9 -2,-3 -20,14 l -32,29 47,19 c 27,11 68,23 93,27 46,9 56,8 287,-13 z"
         id="path833"
         sodipodi:nodetypes="cccccccccccccscscsssccccccccccccsccccccsccccccccccscsccscscccccsccccccccccccccccccccccccccccccsccccccccscccscscccscccscsccccsccccscccccsccccccsscssccccccccccccccccccccccccccsccccsccccccccccccsccccccccccccccccccscccccccccccccccccccccccsccccccccccccccccccccccccccccccccccccccccccccsccccccscccccccscsccccsscccccccccccscccscsccssccsccsccccccccccccccccccccccccccscccccsccccsccccscscscccscccscccccccccccccccccccccccsccccccccccscscsscccccccsscccccccsccccccccsccccccccccccccccccscccccccccccscccscccccccccccccccccccccccccccccccsccccccccscccccscsccsssscscccccscscsscssccsccsssscscsccccccccc" />
      <path
         d="m 4930,5710 c -8,-5 -10,-10 -5,-10 6,0 17,5 25,10 8,5 11,10 5,10 -5,0 -17,-5 -25,-10 z"
         id="path835" />
      <path
         d="m 4525,5690 c 3,-5 8,-10 11,-10 2,0 4,5 4,10 0,6 -5,10 -11,10 -5,0 -7,-4 -4,-10 z"
         id="path837" />
      <path
         d="m 18280,6726 c 0,-2 11,-6 25,-8 13,-3 22,-1 19,3 -5,9 -44,13 -44,5 z"
         id="path839" />
      <path
         d="m 16095,6620 c -11,-19 26,-23 58,-7 l 32,16 h -42 c -23,1 -45,-4 -48,-9 z"
         id="path841" />
      <path
         d="m 16537,6599 c 8,-8 16,-8 30,0 16,9 14,10 -11,11 -22,0 -27,-3 -19,-11 z"
         id="path843" />
      <path
         d="m 19751,6596 c 5,-5 219,-36 246,-36 11,0 13,3 8,9 -13,11 -266,38 -254,27 z"
         id="path845" />
      <path
         d="m 17160,6570 c 0,-5 5,-10 11,-10 5,0 7,5 4,10 -3,6 -8,10 -11,10 -2,0 -4,-4 -4,-10 z"
         id="path847" />
      <path
         d="m 17476,6561 c -4,-5 3,-7 14,-4 23,6 26,13 6,13 -8,0 -17,-4 -20,-9 z"
         id="path849" />
      <path
         d="m 17575,6540 c -22,-6 -12,-8 40,-8 49,0 62,2 45,8 -31,10 -46,10 -85,0 z"
         id="path851" />
      <path
         d="m 17730,6529 c 0,-5 5,-7 10,-4 6,3 10,8 10,11 0,2 -4,4 -10,4 -5,0 -10,-5 -10,-11 z"
         id="path853" />
      <path
         d="m 17835,6520 c 3,-5 11,-10 16,-10 6,0 7,5 4,10 -3,6 -11,10 -16,10 -6,0 -7,-4 -4,-10 z"
         id="path855" />
      <path
         d="m 17950,6511 c 0,-13 37,-24 52,-15 8,5 6,10 -8,15 -27,11 -44,11 -44,0 z"
         id="path857" />
      <path
         d="m 18130,6490 c 0,-5 4,-10 9,-10 6,0 13,5 16,10 3,6 -1,10 -9,10 -9,0 -16,-4 -16,-10 z"
         id="path859" />
      <path
         d="m 18325,6469 c 18,-5 33,-5 39,1 7,7 -4,10 -29,9 -40,-1 -40,-1 -10,-10 z"
         id="path861" />
      <path
         d="m 17331,6458 c -42,-16 -50,-35 -19,-47 28,-10 369,-47 573,-61 151,-10 883,-15 892,-6 10,10 -205,39 -416,57 -74,6 -145,15 -158,20 -13,5 -50,9 -81,9 -31,0 -93,7 -137,16 -110,21 -605,30 -654,12 z"
         id="path863" />
      <path
         d="m 18490,6460 c -12,-8 -9,-10 12,-10 15,0 30,5 33,10 8,13 -25,13 -45,0 z"
         id="path865" />
      <path
         d="m 19868,6433 c -84,-4 -115,-16 -65,-25 34,-7 168,9 181,22 7,7 4,9 -9,8 -11,-1 -59,-4 -107,-5 z"
         id="path867" />
      <path
         d="m 16733,6363 c 15,-2 37,-2 50,0 12,2 0,4 -28,4 -27,0 -38,-2 -22,-4 z"
         id="path869" />
      <path
         d="m 18863,6323 c 9,-2 25,-2 35,0 9,3 1,5 -18,5 -19,0 -27,-2 -17,-5 z"
         id="path871" />
      <path
         d="m 18048,6303 c 7,-3 16,-2 19,1 4,3 -2,6 -13,5 -11,0 -14,-3 -6,-6 z"
         id="path873" />
      <path
         d="m 20333,5884 c -44,-19 8,-30 182,-40 78,-5 108,-3 135,9 l 35,15 -50,2 c -27,1 -93,3 -145,4 -52,1 -106,5 -120,9 -14,3 -31,3 -37,1 z"
         id="path875" />
      <path
         d="m 20820,5711 c 0,-13 27,-21 68,-21 l 37,1 -25,14 c -28,16 -80,20 -80,6 z"
         id="path877" />
      <path
         d="m 21010,5599 c 83,-35 94,-50 45,-60 l -30,-6 28,-7 c 31,-9 60,8 55,32 -2,7 -30,25 -62,38 -70,28 -101,31 -36,3 z"
         id="path879" />
      <path
         d="m 21445,5245 c 28,-14 61,-24 75,-24 22,1 20,3 -15,19 -22,10 -56,21 -75,24 -33,5 -32,4 15,-19 z"
         id="path881" />
      <path
         d="m 20915,4381 c 22,-5 63,-11 90,-15 41,-5 44,-4 20,4 -16,5 -57,12 -90,14 -50,4 -53,4 -20,-3 z"
         id="path883" />
      <path
         d="m 17490,3510 c 0,-5 5,-10 11,-10 5,0 7,5 4,10 -3,6 -8,10 -11,10 -2,0 -4,-4 -4,-10 z"
         id="path885" />
      <path
         d="m 17543,3513 c 9,-2 23,-2 30,0 6,3 -1,5 -18,5 -16,0 -22,-2 -12,-5 z"
         id="path887" />
      <path
         d="m 2120,3486 c 0,-2 7,-7 16,-10 8,-3 12,-2 9,4 -6,10 -25,14 -25,6 z"
         id="path889" />
      <path
         d="m 16405,3400 c -3,-5 -1,-10 4,-10 6,0 11,5 11,10 0,6 -2,10 -4,10 -3,0 -8,-4 -11,-10 z"
         id="path891" />
      <path
         d="m 10215,3190 c -8,-13 15,-13 35,0 12,8 11,10 -7,10 -12,0 -25,-4 -28,-10 z"
         id="path893" />
      <path
         d="m 6233,2913 c -15,-6 -17,-29 -3,-38 5,-3 17,-2 25,2 12,7 13,12 3,25 -7,9 -19,14 -25,11 z"
         id="path895" />
      <path
         d="m 6250,2820 c 0,-5 7,-7 15,-4 8,4 15,8 15,10 0,2 -7,4 -15,4 -8,0 -15,-4 -15,-10 z"
         id="path897" />
      <path
         d="m 1750,2205 c 0,-18 19,-40 26,-32 4,4 0,15 -9,24 -9,10 -17,13 -17,8 z"
         id="path899" />
    </g>
  </g>
</svg>
